<?xml version="1.0" encoding="utf-8"?>
<!-- Generator: Adobe Illustrator 15.1.0, SVG Export Plug-In  -->
<!DOCTYPE svg PUBLIC "-//W3C//DTD SVG 1.1//EN" "http://www.w3.org/Graphics/SVG/1.1/DTD/svg11.dtd" [
	<!ENTITY ns_flows "http://ns.adobe.com/Flows/1.0/">
]>
<svg version="1.1"
	 xmlns="http://www.w3.org/2000/svg" xmlns:xlink="http://www.w3.org/1999/xlink" xmlns:a="http://ns.adobe.com/AdobeSVGViewerExtensions/3.0/"
	 x="0px" y="0px" width="624px" height="161px" viewBox="-2.45 -2.534 624 161" enable-background="new -2.45 -2.534 624 161"
	 xml:space="preserve">
<defs>
</defs>
<path fill="#CB2027" d="M142.259,55.254c6.723,0,13.173-5.597,14.295-12.502c1.327-6.721-3.231-12.318-9.949-12.318
	c-6.72,0-13.171,5.597-14.309,12.318C130.985,49.657,135.355,55.254,142.259,55.254z"/>
<path fill="#CB2027" d="M598.482,75.231c0,0,14.753,0,15.039,0c2.061,0,3.268-0.837,3.733-2.76c0.664-2.769,1.874-7.6,2.22-8.921
	c0.445-1.731-0.563-3.043-2.482-3.043c-0.46,0-7.531,0-14.84,0c1.069-4.253,5.231-18.061,5.231-27.063
	c0-17.978-15.265-33.27-36.926-33.27c-24.463,0-40.378,16.417-40.378,39.518c0,6.738,2.513,14.592,5.63,19.464
	c-1.302-0.075-2.644-0.114-4.028-0.114c-18.588,0-30.296,10.083-30.296,24.755c0,13.77,10.856,19.121,21.076,22.681
	c9.078,3.164,17.437,4.636,17.437,11.728c0,4.782-4.6,7.588-13.601,7.588c-10.681,0-16.551-5.03-18.044-6.938
	c1.012-0.796,2.517-2.688,2.517-5.842c0-4.412-3.098-8.013-8.855-8.013c-4.871,0-8.988,3.972-10.021,9.197
	c-7.822,6.4-16.359,10.546-28.467,10.546c-11.921,0-18.11-6.201-18.11-19.396c2.795,0.85,10.073,1.873,14.883,1.873
	c20.186,0,33.945-9.172,33.945-27.54c0-9.877-8.671-20.25-25.825-20.25h-0.039c-22.563,0-35.2,14.292-40.718,30.013
	c-1.545-0.372-3.096-0.737-4.646-1.084c1.234-3.488,2.12-7.529,2.12-12.009c0-7.764-4.808-16.92-17.674-16.92
	c-8.962,0-17.463,5.87-23.355,14.668c1.465-5.739,2.437-9.561,2.501-9.817c0.383-1.501-0.242-3.173-2.582-3.173
	c-3.007,0-13.206,0-13.206,0c-1.881,0-3.209,0.665-3.745,2.808c-0.359,1.429-4.896,19.232-9.313,36.565
	c-2.782,10.808-17.174,24.262-35.263,24.262c-11.924,0-18.107-6.609-18.107-19.808c3.12,1.242,10.072,2.285,14.88,2.285
	c21.007,0,33.945-9.172,33.945-27.54c0-9.877-8.67-20.25-25.826-20.25h-0.037c-25.407,0-40.969,19.733-43.607,42.107
	c-1.097,9.301-8.947,22.073-17.457,22.073c-4.145,0-6.458-2.604-6.458-7.025c0-3.819,2.689-13.155,5.634-24.854
	c0.987-3.914,2.485-9.884,4.145-16.501c7.501,0,13.526,0,13.813,0c2.056,0,3.262-0.837,3.729-2.76
	c0.662-2.769,1.874-7.6,2.218-8.921c0.446-1.731-0.556-3.043-2.482-3.043c-0.455,0-13.582,0-13.582,0s6.253-24.95,6.402-25.591
	c0.602-2.537-1.52-4.001-3.742-3.534c0,0-10.498,2.055-12.445,2.461c-1.957,0.395-3.476,1.471-4.183,4.292
	c-0.09,0.361-5.56,22.372-5.56,22.372s-10.657,0-10.906,0c-2.055,0-3.264,0.839-3.725,2.758c-0.664,2.765-1.882,7.602-2.218,8.923
	c-0.451,1.731,0.556,3.043,2.479,3.043c0.393,0,4.875,0,10.696,0c-0.077,0.306-3.864,14.713-6.926,27.613
	c-1.443,6.204-6.271,20.72-14.179,20.72c-4.723,0-6.72-2.383-6.72-7.494c0-8.049,7.923-28.198,7.923-37.341
	c0-12.213-6.551-19.289-19.974-19.289c-8.461,0-17.235,5.463-20.952,10.258c0,0,1.127-3.925,1.513-5.434
	c0.412-1.594-0.443-3.16-2.536-3.16c-3,0-10.275,0-13.124,0c-2.793,0-3.565,1.493-3.975,3.135
	c-0.164,0.659-4.892,19.23-9.432,37.056c-3.106,12.207-10.651,22.407-18.717,22.407c-4.148,0-5.995-2.603-5.995-7.024
	c0-3.82,2.468-13.247,5.413-24.946c3.583-14.243,6.744-25.971,7.082-27.342c0.441-1.756-0.344-3.286-2.607-3.286
	c-2.837,0-10.204,0-13.204,0c-2.391,0-3.246,1.255-3.75,2.999c0,0-3.715,14.067-7.651,29.727
	c-2.858,11.366-6.014,22.942-6.014,28.38c0,9.706,4.359,17.022,16.339,17.022c9.247,0,16.566-4.689,22.154-10.663
	c-0.822,3.234-1.345,5.281-1.399,5.49c-0.482,1.848,0.102,3.483,2.28,3.483c3,0,10.553,0,13.511,0c2.352,0,3.256-0.946,3.747-2.997
	c0.473-1.957,10.565-41.648,10.565-41.648c2.667-10.663,9.263-17.722,18.545-17.722c4.401,0,8.21,2.914,7.768,8.577
	c-0.49,6.231-8.003,28.611-8.003,38.434c0,7.434,2.757,17.053,16.753,17.053c9.54,0,16.564-4.574,21.67-10.476
	c1.87,6.264,6.824,10.476,15.911,10.476c15.102,0,24.205-8.957,29.553-17.954c4.437,10.453,14.832,17.95,30.074,17.95
	c15.535,0,27.557-6.549,36.077-15.453c-1.531,6.004-2.569,10.08-2.657,10.422c-0.483,1.877,0.334,3.353,2.538,3.353
	c2.941,0,12.103,0,13.372,0c1.831,0,3.134-0.931,3.61-2.855c0.235-0.944,2.167-8.411,4.896-19.02
	c5.219-20.303,13.608-41.367,26.211-41.367c4.445,0,6.268,2.485,6.268,6.4c0,1.846-0.536,3.441-0.999,4.296
	c-6.11-1.214-11.025,1.802-11.025,8.325c0,4.25,4.472,8.113,10.508,8.113c4.612,0,8.425-1.13,11.466-3.178
	c2.841,0.585,5.891,1.248,8.959,1.949c-0.469,3.053-0.702,6.053-0.702,8.898c0,16.296,11.636,30.116,32.494,30.116
	c16.343,0,27.559-5.978,37.242-13.643c4.654,7.615,16.405,13.769,31.822,13.769c21.13,0,33.114-10.988,33.114-25.511
	c0-13.144-10.791-17.983-21.919-22.01c-9.045-3.268-16.591-5.045-16.591-11.438c0-5.24,4.126-7.637,11.196-7.637
	c4.587,0,8.031,0.988,9.87,1.504c1.824,4.565,5.598,9.62,12.041,9.62c5.452,0,7.9-4.312,7.9-8.283
	c0-11.304-18.83-12.489-18.83-36.732c0-15.075,8.53-27.511,26.197-27.511c12.275,0,20.291,7.784,20.291,20.347
	c0,10.358-6.283,28.797-6.283,28.797s-10.428,0-10.677,0c-2.052,0-3.263,0.839-3.727,2.758c-0.664,2.765-1.88,7.602-2.222,8.923
	c-0.449,1.731,0.558,3.043,2.483,3.043c0.39,0,10.426,0,10.426,0s-10.779,39.75-10.779,46.979c0,9.706,5.47,17.019,17.456,17.019
	c16.954,0,27.547-11.016,32.154-27.036c0.358-1.24-0.344-2.249-1.599-2.249c-2.174,0-5.474,0-6.468,0
	c-1.291,0-2.04,0.737-2.366,1.999c-1.461,5.686-5.082,11.67-12.212,11.67c-4.145,0-6.457-2.604-6.457-7.025
	c0-3.819,2.528-12.76,5.638-24.854C595.843,85.974,598.482,75.231,598.482,75.231z M464.808,74.552c5.995,0,8.843,3.988,8.843,8.741
	c0,8.039-6.235,12.941-15.987,12.941c-3.491,0-8.37-0.827-11.25-1.787C447.625,87.054,452.976,74.552,464.808,74.552z
	 M323.783,74.552c6.562,0,8.84,3.988,8.84,8.741c0,8.039-6.233,12.941-15.984,12.941c-3.491,0-8.37-0.827-11.25-1.787
	C306.594,87.054,311.339,74.552,323.783,74.552z"/>
<path fill="#CB2027" d="M64.347,0C21.569,0,0,30.67,0,56.246c0,15.486,5.863,29.263,18.438,34.397
	c2.062,0.843,3.909,0.029,4.507-2.254c0.416-1.58,1.4-5.566,1.839-7.226c0.603-2.258,0.369-3.05-1.295-5.018
	c-3.626-4.277-5.943-9.814-5.943-17.657c0-22.754,17.024-43.124,44.33-43.124c24.179,0,37.463,14.774,37.463,34.505
	c0,25.961-11.489,47.872-28.545,47.872c-9.419,0-16.47-7.79-14.21-17.344c2.706-11.406,7.948-23.716,7.948-31.949
	c0-7.37-3.956-13.517-12.143-13.517c-9.629,0-17.364,9.961-17.364,23.305c0,8.499,2.872,14.247,2.872,14.247
	s-9.854,41.751-11.581,49.063c-3.44,14.562-0.517,32.413-0.27,34.216c0.145,1.068,1.518,1.322,2.14,0.515
	c0.888-1.159,12.356-15.317,16.255-29.464c1.103-4.006,6.333-24.749,6.333-24.749c3.128,5.967,12.271,11.223,21.994,11.223
	c28.944,0,48.581-26.387,48.581-61.707C121.349,24.873,98.728,0,64.347,0z"/>
</svg>
