<?xml version="1.0" encoding="utf-8"?>
<!-- Generator: Adobe Illustrator 17.0.0, SVG Export Plug-In . SVG Version: 6.00 Build 0)  -->
<!DOCTYPE svg PUBLIC "-//W3C//DTD SVG 1.1//EN" "http://www.w3.org/Graphics/SVG/1.1/DTD/svg11.dtd">
<svg version="1.1" id="Layer_1" xmlns="http://www.w3.org/2000/svg" xmlns:xlink="http://www.w3.org/1999/xlink" x="0px" y="0px"
	 width="894.084px" height="260.813px" viewBox="0 0 894.084 260.813" enable-background="new 0 0 894.084 260.813"
	 xml:space="preserve">
<path fill="#BDFFA6" d="M32,22.578v155.479c0,33.313,13.671,50.509,36.235,50.509c18.99,0,29.049-11.814,32.622-25.072
	c-3.938,3.573-9.314,5.732-16.126,5.732C69.679,209.225,60,198.476,60,178.057V22.578c0-7.176-4.33-10.749-14-10.749
	C36.33,11.829,32,15.402,32,22.578z"/>
<path fill="#BDFFA6" d="M266.5,11.829c-9.67,0-14.5,3.573-14.5,10.749v155.479c0,45.141-16.319,71.293-42.47,82.042
	c42.283-4.303,71.47-34.392,71.47-82.042V22.578C281,15.402,276.17,11.829,266.5,11.829z"/>
<path fill="#BDFFA6" d="M143,22.578v155.479c0,33.313,13.333,50.509,35.896,50.509c18.99,0,28.887-11.814,32.475-25.072
	c-3.953,3.573-10.079,5.732-16.89,5.732c-15.037,0-25.481-10.749-25.481-31.169V22.578c0-7.176-3.323-10.749-13.007-10.749
	C146.323,11.829,143,15.402,143,22.578z"/>
<path fill="#5AF5F9" d="M247,178.771V20.419c0-6.797,5.402-13.608,18.295-13.608c2.873,0,5.924,0.35,8.433,1.429
	c-5.732-4.653-13.424-6.797-23.458-6.797c-22.928,0-30.27,11.099-30.27,24.357v152.255c0,36.536-14.127,55.526-41.007,55.526
	c-26.866,0-40.993-18.99-40.993-55.526V20.419c0-6.797,4.733-13.608,17.627-13.608c2.859,0,5.59,0.35,8.099,1.429
	c-5.732-4.653-13.937-6.797-23.957-6.797C116.84,1.444,109,12.543,109,25.801v152.255c0,36.536-14.134,55.526-41,55.526
	s-41-18.99-41-55.526V20.419c0-6.797,5.057-13.608,17.965-13.608c2.859,0,5.752,0.35,8.246,1.429
	c-5.717-4.653-13.173-6.797-23.207-6.797C7.076,1.444,0,12.543,0,25.801v152.97c0,51.223,23.932,82.042,68.359,82.042
	c21.134,0,43.849-11.114,55.313-31.883c11.464,20.769,33.901,31.883,55.035,31.883C222.419,260.813,247,229.995,247,178.771z"/>
<path fill="#5AF5F9" d="M460.378,229.969h-92.427c-8.955,0-10.951-3.912-10.951-13.218v-64.782h92.629
	c6.447,0,11.114-3.823,11.114-13.507c0-9.67-4.667-13.493-11.114-13.493H357V41.918c0-20.055,6.73-32.963,18.559-37.615
	c-11.829,1.429-27.003,6.447-35.243,13.258C331.71,24.722,328,33.327,328,45.506V218.18c0,26.866,13.8,37.788,34.934,37.788h97.444
	c6.447,0,11.114-3.323,11.114-12.993C471.492,233.292,466.825,229.969,460.378,229.969z"/>
<path fill="#BDFFA6" d="M458.949,204.969H387v-48h-25v60.132c0,5.017,0.584,7.868,5.601,7.868h93.141
	c8.955,0,15.767,5.379,15.767,17.572c0,3.573-0.729,6.62-1.794,9.129c4.653-3.938,7.161-10.45,7.161-20.835
	C481.877,211.131,472.921,204.969,458.949,204.969z"/>
<path fill="#5AF5F9" d="M458.949,35.969h-58.399c-5.017,0-8.549,2.726-8.549,7.743v12.257h65.155
	c13.973,0,22.928-6.136,22.928-25.84c0-10.385-2.509-16.851-7.161-20.789c1.079,2.509,1.794,5.431,1.794,9.005
	C474.715,30.537,467.904,35.969,458.949,35.969z"/>
<path fill="#BDFFA6" d="M362,42.633v76.336h87.993c8.955,0,15.767,6.076,15.767,18.255c0,3.588-0.715,6.983-1.794,9.492
	c4.653-3.938,7.161-9.973,7.161-20.372c0-19.705-8.955-25.375-22.928-25.375H387V44.062c0-9.305,4.959-12.093,13.914-12.093h57.67
	c6.461,0,11.114-3.823,11.114-13.507c0-9.67-4.653-13.493-11.114-13.493h-62.687C374.763,4.969,362,15.767,362,42.633z"/>
<path fill="#5AF5F9" d="M655.383,195.603c0-27.945-12.543-46.206-41.568-58.385l-32.948-13.973
	c-25.087-10.399-39.059-27.595-39.059-57.32c0-33.677,21.134-58.035,46.571-65.925c-42.268,3.588-75.231,29.375-75.231,75.595
	c0,38.33,27.231,62.687,67.719,77.025c38.68,13.608,45.491,27.581,45.491,45.491c0,16.481-15.402,35.471-41.553,35.471
	c-24.357,0-42.633-16.117-42.633-40.839c0-7.161-4.416-10.749-14.086-10.749c-9.67,0-14.086,3.588-14.086,10.749v3.588
	c0,39.045,30.203,63.767,69.977,63.767C630.183,260.098,655.383,231.789,655.383,195.603z"/>
<path fill="#BDFFA6" d="M585.21,228.565c16.117,0,30.966-7.526,35.983-25.072c-5.732,4.303-14.439,5.732-22.315,5.732
	c-14.337,0-21.199-5.382-23.343-14.687c-2.859-12.908-7.901-22.928-30.829-22.928c-10.035,0-17.923,2.144-23.655,6.797
	c2.509-1.065,5.766-1.429,8.64-1.429c12.893,0,18.31,6.811,18.31,13.608v1.079C548,217.101,566.57,228.565,585.21,228.565z"/>
<path fill="#5AF5F9" d="M614.751,32.248c-16.117,0-29.303,8.955-32.891,24.007c3.588-2.873,8.991-4.667,16.167-4.667
	c15.037,0,21.502,6.447,23.66,18.275c1.779,10.385,8.25,19.34,30.098,19.34c10.035,0,17.915-2.144,23.647-6.797
	c-2.509,1.065-5.508,1.429-8.381,1.429c-12.893,0-18.051-6.811-18.051-13.608V66.64C649,46.571,635.535,32.248,614.751,32.248z"/>
<path fill="#BDFFA6" d="M621.341,106.399c-35.821-13.243-45.856-23.993-45.856-41.553c0-22.928,16.694-37.615,39.258-37.615
	c22.563,0,39.258,13.973,39.258,39.045v1.794c0,7.161,4.83,10.749,14.5,10.749c9.67,0,14.5-3.588,14.5-10.749v-6.447
	c0-34.757-30.115-60.908-67.366-60.908c-43.712,0-68.622,30.819-68.622,65.211c0,26.501,12.449,42.983,36.092,53.017l33.63,13.973
	c31.169,12.893,43.674,32.598,43.674,62.687c0,32.963-18.637,55.176-43.709,64.131c45.141-5.367,72.352-33.313,72.352-75.945
	C689.051,143.3,662.894,121.801,621.341,106.399z"/>
<path fill="#BDFFA6" d="M874.03,35.969H838v20h36.03c6.082,0,9.67-3.203,9.67-10C883.7,39.157,880.112,35.969,874.03,35.969z"/>
<path fill="#5AF5F9" d="M894.084,30.422c0-19.69-8.955-25.454-22.928-25.454H732.874c-6.447,0-11.099,3.823-11.099,13.493
	c0,9.685,4.653,13.507,11.099,13.507H806v208.425c0,6.797-5.394,13.608-18.288,13.608c-2.873,0-5.921-0.35-8.429-1.429
	c5.732,4.653,13.418,6.797,23.453,6.797c22.928,0,30.264-11.099,30.264-24.357V31.969h41.745c8.591,0,13.973,4.085,13.973,14.105
	c0,1.444-0.365,3.281-0.715,4.36C891.94,46.496,894.084,40.107,894.084,30.422z"/>
<path fill="#BDFFA6" d="M800,238.235V35.969h-67.476c-8.955,0-15.767-5.441-15.767-17.634c0-3.573,0.715-6.651,1.794-9.16
	c-4.667,3.938-7.176,10.497-7.176,20.881c0,19.705,8.955,25.913,22.928,25.913H773v182.266c0,7.176,3.83,10.749,13.5,10.749
	C796.17,248.984,800,245.411,800,238.235z"/>
</svg>
